<svg width="375" height="375" viewBox="0 0 375 375" fill="none" xmlns="http://www.w3.org/2000/svg">
<path d="M367.189 79.1939L359.184 77.0133C359.184 77.1155 354.975 86.5355 327.015 85.5305C350.218 71.7159 349.588 53.3016 349.522 52.3134L343.125 47.8336C321.314 71.3578 307.625 64.868 288.682 55.8398C275.075 49.3837 259.662 42.0419 239.359 46.6071C200.313 55.3626 186.192 83.6395 183.242 90.6919H183.11C182.463 92.5997 167.1 134.981 111.198 122.546C110.999 122.461 105.315 121.32 95.5031 118.015C69.0689 108.765 52.2966 94.8141 48.982 79.0917C46.5624 67.6955 51.6338 55.7714 63.2681 45.534L57.8817 39.061C43.8278 51.4448 37.7785 66.3159 40.8943 80.9142C43.7283 94.3031 53.7056 106.142 69.6984 115.579C52.0317 116.311 33.022 122.835 22.1831 144.095L29.525 148.046C43.4798 120.638 74.3888 122.24 93.0338 126.157C95.7024 127.094 98.4699 127.997 101.32 128.832C110.799 131.748 120.629 133.284 130.523 133.397C153.559 133.397 168.641 123.619 177.889 113.756C177.454 118.866 177.587 124.009 178.287 129.087C178.287 129.615 181.601 181.621 148.356 193.238C141.726 195.555 134.036 194.738 129.213 191.177C127.611 190.046 126.314 188.514 125.444 186.727C124.575 184.939 124.161 182.954 124.241 180.957H115.955C115.887 184.274 116.606 187.559 118.05 190.526C119.494 193.494 121.619 196.056 124.241 197.991C129.019 201.318 134.679 203.049 140.45 202.948C143.993 202.973 147.515 202.398 150.875 201.245C167.348 195.504 178.635 180.922 183.524 159.102C184.27 155.695 184.8 152.509 185.181 149.426C189.862 157.188 196.262 163.702 203.859 168.436L208.268 161.214C193.352 151.606 185.778 137.775 185.645 120.076C185.656 111.659 187.173 103.315 190.12 95.4614H189.988L190.087 95.2233H190.236C190.335 94.8994 201.589 63.8287 240.917 55.005C258.502 51.0703 271.976 57.458 285.002 63.6586C300.863 71.1876 317.188 78.9895 337.589 64.0505C333.015 71.8692 322.491 81.8681 298.194 87.6426V87.847C295.032 88.6209 291.943 89.6812 288.963 91.0158L292.278 98.8172C300.283 95.2401 311.835 93.7069 326.617 94.1841C327.778 94.1841 328.888 94.1841 329.932 94.1841C317.22 106.653 317.022 125.68 316.79 146.752C316.541 168.896 316.276 194.039 304.178 221.958C295.41 242.195 274.992 271.664 249.154 291.901C194.015 331.199 137.881 330.892 100.475 323.704C81.2789 319.972 62.6039 313.822 44.8719 305.392C52.7274 304.436 60.4894 302.794 68.0747 300.487C118.822 284.951 151.803 254.749 163.421 213.117L155.465 210.767L154.421 210.494C153.415 213.837 151.582 216.854 149.101 219.25C143.384 224.718 134.301 226.575 122.833 224.633C116.558 223.623 110.547 221.317 105.163 217.853C99.7795 214.39 95.1347 209.841 91.5089 204.481C83.7197 193.204 81.4655 180.633 82.6589 173.615C83.6536 167.857 86.1394 163.616 90.067 161.026C94.6913 157.943 101.238 157.296 108.497 159.187L110.535 150.925C101.022 148.438 92.1553 149.494 85.576 153.872C81.2967 156.777 78.0375 161.016 76.2783 165.967C74.9048 164.051 73.2881 162.332 71.4722 160.856C66.5002 156.887 57.5339 152.986 43.0985 156.972L45.2531 165.2C54.2025 162.73 61.3125 163.497 66.3839 167.585C70.7634 171.148 73.6514 176.298 74.4553 181.979C75.7031 191.802 79.2769 201.16 84.8634 209.234C89.1164 215.521 94.5652 220.858 100.88 224.921C107.195 228.985 114.246 231.691 121.606 232.877C124.832 233.437 128.096 233.728 131.368 233.746C133.397 233.75 135.424 233.608 137.434 233.32C126.893 240.832 109.905 246.947 83.0236 243.967C51.1364 240.56 29.9891 232.553 21.7024 220.953C19.913 218.428 18.688 215.528 18.1151 212.459C17.5421 209.391 17.6352 206.23 18.3878 203.204C18.7464 200.98 19.5541 198.858 20.7586 196.975C21.9632 195.091 23.538 193.488 25.3817 192.268C35.0274 185.896 50.722 189.474 50.888 189.508L52.6613 181.297C51.8822 181.11 33.4529 176.868 20.8406 185.164C18.0602 186.994 15.6792 189.397 13.8479 192.22C12.0165 195.044 10.7746 198.226 10.2006 201.568C9.21929 205.765 9.14096 210.131 9.97107 214.362C10.8012 218.592 12.5198 222.586 15.0069 226.064C20.9069 234.376 31.4807 240.9 46.4961 245.602C45.4372 246.085 44.4175 246.655 43.4466 247.305C41.0066 248.925 38.9323 251.063 37.3629 253.575C35.7935 256.087 34.7655 258.915 34.3479 261.87L42.5185 263.301C42.7473 261.506 43.3536 259.784 44.2952 258.254C45.2368 256.725 46.4912 255.424 47.9709 254.443C56.1253 248.94 76.7259 251.853 76.7259 251.853L82.1119 252.501C86.7197 253.009 91.35 253.271 95.9841 253.284C117.529 253.284 132.445 247.169 142.389 239.878C126.843 263.812 101.188 281.374 65.7375 292.225C57.915 294.609 30.9338 301.798 10.8138 293.792L7.81403 301.73C14.2232 304.182 20.9686 305.579 27.8014 305.869C49.8905 318.495 73.8403 327.321 98.7019 332C112.078 334.599 125.66 335.917 139.273 335.935C180.335 336.084 220.428 323.12 254.01 298.834L251.64 295.325L254.159 298.732C281.19 277.592 302.587 246.675 311.801 225.484C324.596 195.964 324.894 168.76 325.06 146.922C325.375 116.72 325.524 98.2894 353.831 90.8114C364.786 86.6376 366.874 80.25 367.189 79.1939Z" fill="#204F24"/>
</svg>
